<svg xmlns="http://www.w3.org/2000/svg" width="960" height="640" viewBox="0 0 960 640" role="img" aria-label="Cloud kitchen delivery workflow illustration">
  <defs>
    <linearGradient id="bg2" x1="0" x2="1" y1="0" y2="1">
      <stop offset="0" stop-color="#EEF6FC"/>
      <stop offset="0.55" stop-color="#FFFFFF"/>
      <stop offset="1" stop-color="#F4FBEE"/>
    </linearGradient>
    <linearGradient id="green2" x1="0" x2="1" y1="0" y2="1">
      <stop offset="0" stop-color="#88C456"/>
      <stop offset="1" stop-color="#6FB53B"/>
    </linearGradient>
    <linearGradient id="blue2" x1="0" x2="1" y1="0" y2="1">
      <stop offset="0" stop-color="#5999C9"/>
      <stop offset="1" stop-color="#3F86BD"/>
    </linearGradient>
    <filter id="softShadow2" x="-20%" y="-20%" width="140%" height="140%">
      <feDropShadow dx="0" dy="10" stdDeviation="16" flood-color="#0B1220" flood-opacity="0.12"/>
    </filter>
  </defs>

  <rect width="960" height="640" rx="56" fill="url(#bg2)"/>
  <circle cx="120" cy="560" r="140" fill="#5999C9" opacity="0.12"/>
  <circle cx="840" cy="120" r="120" fill="#88C456" opacity="0.12"/>
  <circle cx="770" cy="560" r="80" fill="#FCB752" opacity="0.10"/>

  <g filter="url(#softShadow2)">
    <rect x="120" y="160" width="720" height="360" rx="40" fill="#FFFFFF"/>
  </g>

  <!-- Cloud -->
  <g transform="translate(240 210)">
    <path d="M180 210h210c52 0 94-40 94-90s-40-90-90-90c-10 0-20 2-29 5C345 15 318 0 288 0c-34 0-63 20-77 49-8-3-17-5-27-5-40 0-74 32-74 72 0 8 1 15 3 22-34 10-59 41-59 78 0 46 38 84 84 84z" fill="#F6FBFF" stroke="#D6E6F3" stroke-width="4"/>
    <circle cx="158" cy="120" r="10" fill="url(#blue2)"/>
    <circle cx="238" cy="86" r="10" fill="url(#green2)"/>
    <circle cx="328" cy="128" r="10" fill="#FCB752"/>
    <path d="M168 120h60M248 86h60M338 128h56" stroke="#0B1220" stroke-opacity="0.18" stroke-width="6" stroke-linecap="round"/>
  </g>

  <!-- Kitchen counter + chef hat -->
  <g transform="translate(180 300)">
    <rect x="0" y="120" width="340" height="90" rx="22" fill="#0B1220" opacity="0.05"/>
    <rect x="14" y="132" width="312" height="66" rx="18" fill="#FFFFFF" stroke="#D9E7D0" stroke-width="4"/>
    <rect x="34" y="152" width="120" height="14" rx="7" fill="url(#green2)" opacity="0.35"/>
    <rect x="34" y="172" width="180" height="14" rx="7" fill="#0B1220" opacity="0.08"/>

    <path d="M250 40c0-28-22-50-50-50-14 0-26 6-35 15-7-10-19-15-33-15-22 0-40 18-40 40 0 10 4 19 10 26-10 4-17 14-17 25 0 15 12 27 27 27h120c19 0 35-16 35-35 0-15-10-28-24-33 4-6 7-13 7-20z" fill="#FFFFFF" stroke="#FCB752" stroke-width="5"/>
    <rect x="112" y="88" width="128" height="14" rx="7" fill="#FCB752" opacity="0.35"/>
  </g>

  <!-- Delivery card -->
  <g transform="translate(590 305)">
    <rect x="0" y="0" width="220" height="170" rx="28" fill="#0B1220" opacity="0.05"/>
    <rect x="12" y="12" width="196" height="146" rx="24" fill="#FFFFFF" stroke="#D6E6F3" stroke-width="4"/>
    <rect x="30" y="34" width="104" height="16" rx="8" fill="url(#blue2)" opacity="0.9"/>
    <rect x="30" y="64" width="160" height="14" rx="7" fill="#0B1220" opacity="0.08"/>
    <rect x="30" y="86" width="130" height="14" rx="7" fill="#0B1220" opacity="0.08"/>
    <rect x="30" y="116" width="88" height="30" rx="15" fill="url(#green2)" opacity="0.95"/>
    <path d="M152 124h26l10 10v12h-36z" fill="#5999C9" opacity="0.18"/>
    <circle cx="168" cy="150" r="9" fill="#0B1220" opacity="0.18"/>
    <circle cx="190" cy="150" r="9" fill="#0B1220" opacity="0.18"/>
  </g>
</svg>

